<svg width="16" height="20" viewBox="0 0 16 20" fill="none" xmlns="http://www.w3.org/2000/svg">
<path fill-rule="evenodd" clip-rule="evenodd" d="M0.800049 2.80002C0.800049 2.1635 1.05291 1.55306 1.50299 1.10297C1.95308 0.652881 2.56353 0.400024 3.20005 0.400024H8.70325C9.33972 0.40016 9.95007 0.653106 10.4 1.10322L14.4968 5.20002C14.947 5.65001 15.1999 6.26036 15.2 6.89682V17.2C15.2 17.8365 14.9472 18.447 14.4971 18.8971C14.047 19.3472 13.4366 19.6 12.8 19.6H3.20005C2.56353 19.6 1.95308 19.3472 1.50299 18.8971C1.05291 18.447 0.800049 17.8365 0.800049 17.2V2.80002ZM3.20005 10C3.20005 9.68176 3.32648 9.37654 3.55152 9.1515C3.77656 8.92645 4.08179 8.80002 4.40005 8.80002H11.6C11.9183 8.80002 12.2235 8.92645 12.4486 9.1515C12.6736 9.37654 12.8 9.68176 12.8 10C12.8 10.3183 12.6736 10.6235 12.4486 10.8486C12.2235 11.0736 11.9183 11.2 11.6 11.2H4.40005C4.08179 11.2 3.77656 11.0736 3.55152 10.8486C3.32648 10.6235 3.20005 10.3183 3.20005 10ZM4.40005 13.6C4.08179 13.6 3.77656 13.7265 3.55152 13.9515C3.32648 14.1765 3.20005 14.4818 3.20005 14.8C3.20005 15.1183 3.32648 15.4235 3.55152 15.6486C3.77656 15.8736 4.08179 16 4.40005 16H11.6C11.9183 16 12.2235 15.8736 12.4486 15.6486C12.6736 15.4235 12.8 15.1183 12.8 14.8C12.8 14.4818 12.6736 14.1765 12.4486 13.9515C12.2235 13.7265 11.9183 13.6 11.6 13.6H4.40005Z" fill="#F48927"/>
</svg>
