<svg width="19" height="18" viewBox="0 0 19 18" fill="none" xmlns="http://www.w3.org/2000/svg">
<path d="M8.37906 1.429C8.73906 0.323798 10.3027 0.323798 10.6615 1.429L11.9455 5.3794C12.0239 5.61998 12.1764 5.82961 12.3811 5.97832C12.5859 6.12703 12.8324 6.20721 13.0855 6.2074H17.2399C18.4027 6.2074 18.8851 7.6954 17.9455 8.3794L14.5855 10.8202C14.3803 10.969 14.2275 11.179 14.1491 11.42C14.0706 11.661 14.0704 11.9207 14.1487 12.1618L15.4327 16.1122C15.7927 17.2174 14.5267 18.1378 13.5847 17.4538L10.2247 15.013C10.0197 14.8642 9.77293 14.7841 9.51966 14.7841C9.26639 14.7841 9.01961 14.8642 8.81466 15.013L5.45466 17.4538C4.51386 18.1378 3.24906 17.2174 3.60786 16.1122L4.89186 12.1618C4.97007 11.9207 4.96993 11.661 4.89146 11.42C4.81299 11.179 4.66022 10.969 4.45506 10.8202L1.09626 8.3806C0.156657 7.6966 0.640257 6.2086 1.80186 6.2086H5.95506C6.20831 6.20866 6.4551 6.1286 6.66009 5.97988C6.86507 5.83115 7.01775 5.62138 7.09626 5.3806L8.38026 1.4302L8.37906 1.429Z" fill="#506176"/>
</svg>
