<svg width="18" height="19" viewBox="0 0 18 19" fill="none" xmlns="http://www.w3.org/2000/svg">
<path fill-rule="evenodd" clip-rule="evenodd" d="M8.99998 7.8001C9.95476 7.8001 10.8704 7.42081 11.5456 6.74568C12.2207 6.07055 12.6 5.15488 12.6 4.2001C12.6 3.24532 12.2207 2.32964 11.5456 1.65451C10.8704 0.979382 9.95476 0.600098 8.99998 0.600098C8.0452 0.600098 7.12952 0.979382 6.45439 1.65451C5.77926 2.32964 5.39998 3.24532 5.39998 4.2001C5.39998 5.15488 5.77926 6.07055 6.45439 6.74568C7.12952 7.42081 8.0452 7.8001 8.99998 7.8001ZM0.599976 18.6001C0.599976 17.497 0.817248 16.4047 1.23939 15.3856C1.66153 14.3664 2.28027 13.4404 3.06028 12.6604C3.84029 11.8804 4.7663 11.2616 5.78544 10.8395C6.80457 10.4174 7.89687 10.2001 8.99998 10.2001C10.1031 10.2001 11.1954 10.4174 12.2145 10.8395C13.2337 11.2616 14.1597 11.8804 14.9397 12.6604C15.7197 13.4404 16.3384 14.3664 16.7606 15.3856C17.1827 16.4047 17.4 17.497 17.4 18.6001H0.599976Z" fill="#F48927"/>
</svg>
