<svg width="41" height="41" viewBox="0 0 41 41" fill="none" xmlns="http://www.w3.org/2000/svg">
<rect x="0.5" y="0.373169" width="40" height="40" rx="20" fill="#003ECB"/>
<mask id="mask0_6364_7103" style="mask-type:alpha" maskUnits="userSpaceOnUse" x="8" y="8" width="25" height="25">
<path fill-rule="evenodd" clip-rule="evenodd" d="M13.8 12.8001C13.8 12.1636 14.0528 11.5531 14.5029 11.103C14.953 10.6529 15.5635 10.4001 16.2 10.4001H21.7032C22.3397 10.4002 22.95 10.6532 23.4 11.1033L27.4968 15.2001C27.9469 15.6501 28.1999 16.2604 28.2 16.8969V27.2001C28.2 27.8366 27.9471 28.4471 27.497 28.8971C27.047 29.3472 26.4365 29.6001 25.8 29.6001H16.2C15.5635 29.6001 14.953 29.3472 14.5029 28.8971C14.0528 28.4471 13.8 27.8366 13.8 27.2001V12.8001ZM16.2 20.0001C16.2 19.6818 16.3264 19.3766 16.5515 19.1516C16.7765 18.9265 17.0817 18.8001 17.4 18.8001H24.6C24.9182 18.8001 25.2235 18.9265 25.4485 19.1516C25.6736 19.3766 25.8 19.6818 25.8 20.0001C25.8 20.3183 25.6736 20.6236 25.4485 20.8486C25.2235 21.0737 24.9182 21.2001 24.6 21.2001H17.4C17.0817 21.2001 16.7765 21.0737 16.5515 20.8486C16.3264 20.6236 16.2 20.3183 16.2 20.0001ZM17.4 23.6001C17.0817 23.6001 16.7765 23.7265 16.5515 23.9516C16.3264 24.1766 16.2 24.4818 16.2 24.8001C16.2 25.1183 16.3264 25.4236 16.5515 25.6486C16.7765 25.8737 17.0817 26.0001 17.4 26.0001H24.6C24.9182 26.0001 25.2235 25.8737 25.4485 25.6486C25.6736 25.4236 25.8 25.1183 25.8 24.8001C25.8 24.4818 25.6736 24.1766 25.4485 23.9516C25.2235 23.7265 24.9182 23.6001 24.6 23.6001H17.4Z" fill="#506176"/>
</mask>
<g mask="url(#mask0_6364_7103)">
<rect x="8.5" y="8.37317" width="24" height="24" fill="white"/>
</g>
</svg>
